# xmcd CD database file
#
# Track frame offsets:
#	150
#	18900
#	43426
#	64126
#
# Disc length: 1179 seconds
#
# Revision: 0
# Processed by: cddbd v1.5.1PL2 Copyright (c) Steve Scherf et al.
# Submitted via: CDex 1.51
#
DISCID=32049904
DTITLE=黒沢秀樹 - summer
DYEAR=2006
DGENRE=J-POP
TTITLE0=summer
TTITLE1=かげろう
TTITLE2=夢の地図
TTITLE3=透明なBlues
EXTD=YEAR: 2006
EXTT0=
EXTT1=
EXTT2=
EXTT3=
PLAYORDER=
